<svg width="25" height="25" viewBox="0 0 35 36" fill="none" xmlns="http://www.w3.org/2000/svg">
<path d="M17.4145 24.8386C16.8209 24.8386 16.3406 24.3582 16.3406 23.7646V1.71869C16.3406 1.12504 16.8209 0.64473 17.4145 0.64473C18.0082 0.64473 18.4885 1.12504 18.4885 1.71869V23.77C18.4885 24.3582 18.0082 24.8386 17.4145 24.8386Z" fill="#E9E9E9"/>
<path d="M17.4145 35.1842C13.9714 35.1842 11.1704 32.3832 11.1704 28.9401C11.1704 25.4969 13.9714 22.696 17.4145 22.696C20.8577 22.696 23.6586 25.4969 23.6586 28.9401C23.6586 32.3832 20.8577 35.1842 17.4145 35.1842ZM17.4145 24.8385C15.1533 24.8385 13.3183 26.6788 13.3183 28.9347C13.3183 31.196 15.1587 33.0309 17.4145 33.0309C19.6704 33.0309 21.5107 31.1906 21.5107 28.9347C21.5107 26.6788 19.6758 24.8385 17.4145 24.8385ZM23.2646 18.9884H1.21874C0.62509 18.9884 0.144775 18.5081 0.144775 17.9144C0.144775 17.3208 0.62509 16.8405 1.21874 16.8405H23.2646C23.8583 16.8405 24.3386 17.3208 24.3386 17.9144C24.3386 18.5081 23.8583 18.9884 23.2646 18.9884Z" fill="#E9E9E9"/>
<path d="M28.4401 24.1586C24.997 24.1586 22.196 21.3576 22.196 17.9145C22.196 14.4713 24.997 11.6704 28.4401 11.6704C31.8833 11.6704 34.6842 14.4713 34.6842 17.9145C34.6842 21.3576 31.8833 24.1586 28.4401 24.1586ZM28.4401 13.8183C26.1789 13.8183 24.344 15.6586 24.344 17.9145C24.344 20.1757 26.1843 22.0106 28.4401 22.0106C30.696 22.0106 32.5363 20.1703 32.5363 17.9145C32.5363 15.6532 30.696 13.8183 28.4401 13.8183Z" fill="#E9E9E9"/>
</svg>
