<svg width="34" height="29" viewBox="0 0 34 29" fill="none" xmlns="http://www.w3.org/2000/svg">
<path d="M20.9138 7.79309H25.3104C25.4163 7.78953 25.5204 7.82144 25.6061 7.88375C25.6918 7.94606 25.7543 8.03521 25.7836 8.13706C26.113 8.84147 26.3036 9.60277 26.3448 10.3793C28.0052 8.23275 30.0483 7.27585 32.769 7.27585C32.81 7.26854 32.8522 7.27124 32.8919 7.28373C32.9316 7.29622 32.9678 7.31813 32.9972 7.34758C33.0267 7.37704 33.0486 7.41318 33.0611 7.45292C33.0736 7.49267 33.0763 7.53484 33.069 7.57585V12.1431C33.069 12.3733 32.9552 12.4715 32.725 12.4431C30.2345 12.3009 28.2586 12.6267 26.8285 14.0569C26.6845 14.1774 26.5672 14.3266 26.484 14.4949C26.4007 14.6632 26.3533 14.8469 26.3448 15.0345V28.1827C26.3448 28.3819 26.231 28.4827 26.0009 28.4827H21.5578C21.2991 28.4827 21.1724 28.369 21.1724 28.1388V13.4827C21.1724 10.0121 20.9138 9.51809 20.6552 8.09309C20.6267 7.89395 20.7121 7.79309 20.9138 7.79309ZM17.4276 28.4827H1.39311C1.13449 28.4827 0.99742 28.3353 0.99742 28.0431V0.903437C0.990379 0.85539 0.994712 0.80636 1.01007 0.760291C1.02543 0.714223 1.05138 0.672402 1.08585 0.638191C1.12031 0.603979 1.16232 0.578333 1.2085 0.563313C1.25468 0.548293 1.30374 0.544321 1.35173 0.551713H5.9138C6.08966 0.551713 6.17242 0.655162 6.17242 0.859472V24.3448H18.2629C18.5216 24.3448 18.6276 24.4638 18.5707 24.6965L17.8672 28.131C17.8513 28.234 17.7973 28.3273 17.7159 28.3925C17.6345 28.4576 17.5316 28.4898 17.4276 28.4827Z" fill="#31A8FF"/>
</svg>
