<svg width="25" height="28" viewBox="0 0 33 28" fill="none" xmlns="http://www.w3.org/2000/svg">
<path d="M24.0736 3.57646H26.4541C28.0286 3.57646 29.4594 4.22018 30.4959 5.2565C31.5322 6.29283 32.1759 7.72408 32.1759 9.29814V22.1729C32.1759 23.7474 31.5323 25.1782 30.496 26.2145C29.4597 27.251 28.0286 27.8947 26.4541 27.8947H6.2482C4.6737 27.8947 3.24289 27.251 2.20656 26.2145C1.17008 25.1782 0.526367 23.7474 0.526367 22.1729V9.29814C0.526367 7.72365 1.17008 6.29269 2.20656 5.25636C3.24289 4.21989 4.6737 3.57646 6.2482 3.57646H8.62885C8.85382 2.84755 9.29336 2.20629 9.83398 1.68791C10.7532 0.805937 12.0151 0.263153 12.9921 0.263153H19.7101C20.6871 0.263153 21.9491 0.805937 22.8682 1.68791C23.4086 2.20629 23.8482 2.84755 24.0734 3.57646H24.0736ZM16.3511 8.762C18.2764 8.762 20.0202 9.54275 21.2821 10.8046C22.5441 12.0666 23.3249 13.8104 23.3249 15.7357C23.3249 17.661 22.5441 19.4047 21.2821 20.6667C20.0199 21.9286 18.2767 22.7093 16.3511 22.7093C14.4256 22.7093 12.6823 21.9286 11.4202 20.6667C10.1583 19.4045 9.37754 17.6611 9.37754 15.7357C9.37754 13.8102 10.1583 12.0668 11.4202 10.8046C12.682 9.54275 14.4259 8.762 16.3511 8.762ZM19.7652 12.3216C18.8918 11.4482 17.6846 10.908 16.3511 10.908C15.0178 10.908 13.8105 11.4482 12.937 12.3216C12.0639 13.1951 11.5234 14.4024 11.5234 15.7357C11.5234 17.0689 12.0639 18.2764 12.937 19.1497C13.8105 20.023 15.0178 20.5635 16.3511 20.5635C17.6843 20.5635 18.8918 20.023 19.7652 19.1497C20.6387 18.2764 21.1789 17.0691 21.1789 15.7357C21.1789 14.4022 20.6387 13.1951 19.7652 12.3216ZM26.4541 5.72232H23.1637C22.5713 5.72232 22.0909 5.24192 22.0909 4.64946C22.0909 4.11982 21.7936 3.62209 21.3846 3.23005C20.8551 2.72192 20.1883 2.40916 19.7102 2.40916H12.9922C12.5141 2.40916 11.8473 2.72192 11.3178 3.23005C10.9089 3.62223 10.6115 4.11982 10.6115 4.64946C10.6115 5.24192 10.1311 5.72232 9.53869 5.72232H6.24834C5.26587 5.72232 4.37192 6.12504 3.72358 6.77338C3.07524 7.42186 2.67238 8.31582 2.67238 9.29829V22.173C2.67238 23.1552 3.07524 24.0495 3.72358 24.6978C4.37206 25.3461 5.26602 25.749 6.24834 25.749H26.4542C27.4367 25.749 28.3309 25.3461 28.9791 24.6978C29.6276 24.0493 30.0302 23.1555 30.0302 22.173V9.29829C30.0302 8.31611 29.6275 7.42186 28.979 6.77367C28.3305 6.12519 27.4365 5.72232 26.4542 5.72232H26.4541Z" fill="#E9E9E9"/>
</svg>
