<svg width="36" height="30" viewBox="0 0 36 30" fill="none" xmlns="http://www.w3.org/2000/svg">
<path d="M0.448303 29.1931V1.03445C0.443228 0.995211 0.447225 0.955326 0.459987 0.917872C0.472749 0.880417 0.493935 0.84639 0.521915 0.818411C0.549895 0.790431 0.583922 0.769244 0.621377 0.756482C0.658832 0.74372 0.698715 0.739722 0.737958 0.744797C2.83537 0.690487 5.31037 0.517212 8.53796 0.517212C12.3449 0.517212 15.138 1.31118 16.9173 3.02066C17.7817 3.82943 18.4661 4.81117 18.9259 5.90197C19.3858 6.99277 19.6107 8.16818 19.5862 9.3517C19.5862 12.4707 18.4828 14.7879 16.2759 16.3034C14.069 17.8189 11.2931 18.5776 7.9483 18.5793L5.62072 18.6207V29.1517C5.62722 29.1967 5.62314 29.2426 5.6088 29.2857C5.59446 29.3288 5.57026 29.368 5.53813 29.4001C5.50599 29.4323 5.4668 29.4565 5.42367 29.4708C5.38054 29.4852 5.33466 29.4892 5.28968 29.4827H0.779337C0.55951 29.4827 0.448303 29.387 0.448303 29.1931ZM5.62072 4.55687V14.7414C5.62072 14.7414 6.80003 14.6948 8.20692 14.6948C10.0569 14.6948 11.5535 14.2879 12.6966 13.4741C13.8397 12.6603 14.4121 11.3276 14.4138 9.47583C14.4138 7.84825 13.9104 6.59307 12.9035 5.71032C11.8966 4.82756 10.4414 4.38963 8.53796 4.39652C8.06985 4.39652 7.60692 4.39652 7.15175 4.41721C6.69658 4.4379 6.32416 4.4379 6.03451 4.4379C5.74485 4.4379 5.58968 4.42756 5.62072 4.55687ZM23.4655 8.79307H27.8621C27.968 8.78952 28.0721 8.82142 28.1578 8.88373C28.2436 8.94604 28.3061 9.03519 28.3354 9.13704C28.6648 9.84146 28.8553 10.6028 28.8966 11.3793C30.5569 9.23273 32.6 8.27583 35.3207 8.27583C35.3617 8.26852 35.4039 8.27122 35.4436 8.28371C35.4834 8.2962 35.5195 8.31811 35.549 8.34757C35.5784 8.37702 35.6003 8.41316 35.6128 8.4529C35.6253 8.49265 35.628 8.53482 35.6207 8.57583V13.1431C35.6207 13.3732 35.5069 13.4715 35.2767 13.4431C32.7862 13.3008 30.8104 13.6267 29.3802 15.0569C29.2363 15.1774 29.119 15.3266 29.0357 15.4949C28.9524 15.6631 28.9051 15.8469 28.8966 16.0345V29.1827C28.8966 29.3819 28.7828 29.4827 28.5526 29.4827H24.1095C23.8509 29.4827 23.7242 29.3689 23.7242 29.1388V14.4827C23.7242 11.012 23.4655 10.5181 23.2069 9.09308C23.1785 8.89394 23.2638 8.79307 23.4655 8.79307Z" fill="#9999FF"/>
</svg>
