<svg width="38" height="30" viewBox="0 0 38 30" fill="none" xmlns="http://www.w3.org/2000/svg">
<path d="M0.931091 29.1931V1.03445C0.926016 0.995211 0.930013 0.955326 0.942775 0.917872C0.955537 0.880417 0.976724 0.84639 1.0047 0.818411C1.03268 0.790431 1.06671 0.769244 1.10417 0.756482C1.14162 0.74372 1.1815 0.739722 1.22075 0.744797C3.31816 0.690487 5.79316 0.517212 9.02075 0.517212C12.8276 0.517212 15.6207 1.31118 17.4001 3.02066C18.2645 3.82943 18.9489 4.81117 19.4087 5.90197C19.8685 6.99277 20.0935 8.16818 20.069 9.3517C20.069 12.4707 18.9656 14.7879 16.7587 16.3034C14.5518 17.8189 11.7759 18.5776 8.43109 18.5793L6.1035 18.6207V29.1517C6.11 29.1967 6.10592 29.2426 6.09159 29.2857C6.07725 29.3288 6.05305 29.368 6.02091 29.4001C5.98878 29.4323 5.94959 29.4565 5.90646 29.4708C5.86333 29.4852 5.81745 29.4892 5.77247 29.4827H1.26213C1.0423 29.4827 0.931091 29.387 0.931091 29.1931ZM6.1035 4.55687V14.7414C6.1035 14.7414 7.28281 14.6948 8.68971 14.6948C10.5397 14.6948 12.0363 14.2879 13.1794 13.4741C14.3225 12.6603 14.8949 11.3276 14.8966 9.47583C14.8966 7.84825 14.3932 6.59307 13.3863 5.71032C12.3794 4.82756 10.9242 4.38963 9.02075 4.39652C8.55264 4.39652 8.08971 4.39652 7.63454 4.41721C7.17937 4.4379 6.80695 4.4379 6.5173 4.4379C6.22764 4.4379 6.07247 4.42756 6.1035 4.55687ZM37.138 22.7586C37.138 25.9267 35.069 27.4138 35.069 27.4138V27.3982C34.9449 27.5198 34.8104 27.6336 34.6785 27.7448C33.2544 28.9034 31.3294 29.4827 28.9035 29.4827C26.4776 29.4827 24.4949 29.0362 22.9552 28.1431C22.8701 28.1135 22.7978 28.0553 22.7507 27.9785C22.7035 27.9016 22.6844 27.8108 22.6966 27.7215V23.8241C22.6928 23.7801 22.7002 23.7358 22.7184 23.6955C22.7365 23.6553 22.7646 23.6203 22.8001 23.5939C22.8281 23.5737 22.8627 23.5646 22.8971 23.5684C22.9316 23.5722 22.9633 23.5887 22.9863 23.6146C24.6275 24.9043 26.6507 25.612 28.738 25.6267C29.7018 25.6267 30.4397 25.4543 30.9518 25.1095C31.1878 24.9687 31.3834 24.7691 31.5194 24.5303C31.6553 24.2914 31.7271 24.0214 31.7276 23.7465C31.7332 23.4691 31.6809 23.1936 31.574 22.9376C31.4671 22.6816 31.3081 22.4506 31.107 22.2595C30.6932 21.8526 29.8794 21.412 28.6656 20.9379C26.457 20.0758 24.919 19.1465 24.0518 18.15C23.1339 17.1515 22.634 15.8389 22.6552 14.4827C22.6557 13.6391 22.837 12.8053 23.1867 12.0376C23.5365 11.2698 24.0466 10.5859 24.6828 10.0319C25.9776 8.85773 27.8259 8.27066 30.2276 8.27066C32.469 8.27066 34.1932 8.57842 35.4001 9.19394C35.5371 9.2767 35.607 9.45256 35.607 9.73704V13.2155C35.607 13.5517 35.4828 13.6345 35.2345 13.4741C33.7958 12.5289 32.1146 12.0197 30.3932 12.0077C29.4259 12.0077 28.7173 12.1914 28.2621 12.5534C28.055 12.7004 27.8853 12.894 27.7667 13.1186C27.6481 13.3432 27.5839 13.5926 27.5794 13.8465C27.5786 14.095 27.6297 14.3409 27.7295 14.5685C27.8292 14.796 27.9754 15.0003 28.1587 15.1681C28.5449 15.5457 29.3587 15.9853 30.6001 16.487C32.7656 17.3336 34.3173 18.2232 35.2552 19.156L35.2785 19.1793C36.2432 20.0664 37.138 21.287 37.138 22.7586Z" fill="#31A8FF"/>
</svg>
