<svg width="25" height="25" viewBox="0 0 28 32" fill="none" xmlns="http://www.w3.org/2000/svg">
<path d="M27.8125 21.4572V2.46051C27.8113 2.20111 27.7517 1.94531 27.6381 1.71211C27.5244 1.47891 27.3598 1.2743 27.1562 1.11347C26.9556 0.951175 26.7211 0.835902 26.4701 0.776131C26.2191 0.716359 25.9578 0.713608 25.7056 0.768078L10.1628 4.22203C9.77911 4.30856 9.43645 4.52347 9.1915 4.83123C8.94655 5.13898 8.814 5.52113 8.81577 5.91446V20.3174C7.63682 19.7608 6.30918 19.6016 5.03203 19.8634C3.75488 20.1253 2.59707 20.7943 1.73231 21.7699C0.867542 22.7455 0.342443 23.9753 0.235785 25.2746C0.129127 26.574 0.446661 27.8729 1.14075 28.9765C1.83484 30.0801 2.86806 30.9289 4.08541 31.3956C5.30276 31.8622 6.6386 31.9215 7.89253 31.5647C9.14647 31.2078 10.2509 30.454 11.0401 29.4162C11.8293 28.3785 12.2607 27.1129 12.2697 25.8092C12.2876 25.5101 12.2876 25.2102 12.2697 24.9112V7.29604L24.3585 4.61923V16.8635C23.1789 16.3066 21.8505 16.1474 20.5727 16.4099C19.2949 16.6723 18.1367 17.3423 17.2722 18.3191C16.4076 19.2959 15.8833 20.5268 15.7779 21.827C15.6726 23.1272 15.9919 24.4265 16.688 25.5298C17.384 26.633 18.4192 27.4806 19.6381 27.9454C20.857 28.4101 22.1937 28.4669 23.4476 28.1071C24.7015 27.7474 25.8048 26.9905 26.5919 25.9503C27.3789 24.91 27.8072 23.6424 27.8125 22.338C27.8289 22.0446 27.8289 21.7506 27.8125 21.4572Z" fill="#E9E9E9"/>
</svg>
