<svg width="25" height="25" viewBox="0 0 38 28" fill="none" xmlns="http://www.w3.org/2000/svg">
<path d="M6.66668 0.144745C3.27548 0.144745 0.526367 2.89386 0.526367 6.28506V21.636C0.526367 25.027 3.27548 27.7763 6.66668 27.7763H22.0175C25.293 27.7763 27.9693 25.2115 28.1483 21.9811L35.0638 26.0331C35.5384 26.3112 36.1258 26.314 36.6032 26.0405C37.0806 25.7669 37.375 25.2588 37.375 24.7086V3.21248C37.375 2.66283 37.0812 2.15511 36.6044 1.88135C36.1279 1.60758 35.5412 1.60955 35.0666 1.88651L28.1474 5.92248C27.9598 2.70007 25.2869 0.144745 22.0175 0.144745H6.66668ZM3.59653 6.28506C3.59653 4.58947 4.9711 3.2149 6.66668 3.2149H22.0175C23.7131 3.2149 25.0876 4.58947 25.0876 6.28506V21.636C25.0876 23.3313 23.7131 24.7062 22.0175 24.7062H6.66668C4.9711 24.7062 3.59653 23.3313 3.59653 21.636V6.28506ZM28.1581 18.4283V9.47053L34.3049 5.88505V22.0299L28.1581 18.4283Z" fill="#E9E9E9"/>
</svg>
