<svg width="25" height="25" viewBox="0 0 31 31" fill="none" xmlns="http://www.w3.org/2000/svg">
<path d="M12.9606 5.96052C12.6873 5.96052 12.4202 6.04155 12.193 6.19336C11.9658 6.34517 11.7887 6.56094 11.6842 6.81339C11.5796 7.06584 11.5522 7.34363 11.6055 7.61163C11.6589 7.87963 11.7904 8.1258 11.9837 8.31902C12.1769 8.51224 12.423 8.64382 12.691 8.69713C12.959 8.75044 13.2368 8.72308 13.4893 8.61851C13.7417 8.51394 13.9575 8.33686 14.1093 8.10966C14.2611 7.88246 14.3422 7.61535 14.3422 7.3421C14.3422 6.97568 14.1966 6.62427 13.9375 6.36518C13.6784 6.10608 13.327 5.96052 12.9606 5.96052ZM7.43426 5.96052C7.16101 5.96052 6.8939 6.04155 6.6667 6.19336C6.4395 6.34517 6.26242 6.56094 6.15785 6.81339C6.05328 7.06584 6.02592 7.34363 6.07923 7.61163C6.13254 7.87963 6.26412 8.1258 6.45734 8.31902C6.65056 8.51224 6.89673 8.64382 7.16473 8.69713C7.43273 8.75044 7.71052 8.72308 7.96297 8.61851C8.21542 8.51394 8.43119 8.33686 8.583 8.10966C8.73481 7.88246 8.81584 7.61535 8.81584 7.3421C8.81584 6.97568 8.67028 6.62427 8.41119 6.36518C8.15209 6.10608 7.80068 5.96052 7.43426 5.96052ZM18.4869 5.96052C18.2136 5.96052 17.9465 6.04155 17.7193 6.19336C17.4921 6.34517 17.315 6.56094 17.2105 6.81339C17.1059 7.06584 17.0786 7.34363 17.1319 7.61163C17.1852 7.87963 17.3168 8.1258 17.51 8.31902C17.7032 8.51224 17.9494 8.64382 18.2174 8.69713C18.4854 8.75044 18.7632 8.72308 19.0156 8.61851C19.2681 8.51394 19.4838 8.33686 19.6356 8.10966C19.7874 7.88246 19.8685 7.61535 19.8685 7.3421C19.8685 6.97568 19.7229 6.62427 19.4638 6.36518C19.2047 6.10608 18.8533 5.96052 18.4869 5.96052ZM26.7764 0.434204H4.6711C3.57185 0.434204 2.51762 0.87088 1.74033 1.64817C0.963044 2.42546 0.526367 3.47969 0.526367 4.57894V26.6842C0.526367 27.7835 0.963044 28.8377 1.74033 29.615C2.51762 30.3923 3.57185 30.8289 4.6711 30.8289H26.7764C27.8756 30.8289 28.9298 30.3923 29.7071 29.615C30.4844 28.8377 30.9211 27.7835 30.9211 26.6842V4.57894C30.9211 3.47969 30.4844 2.42546 29.7071 1.64817C28.9298 0.87088 27.8756 0.434204 26.7764 0.434204ZM28.1579 26.6842C28.1579 27.0506 28.0124 27.402 27.7533 27.6611C27.4942 27.9202 27.1428 28.0658 26.7764 28.0658H4.6711C4.30469 28.0658 3.95328 27.9202 3.69418 27.6611C3.43508 27.402 3.28953 27.0506 3.28953 26.6842V14.25H28.1579V26.6842ZM28.1579 11.4868H3.28953V4.57894C3.28953 4.21252 3.43508 3.86111 3.69418 3.60202C3.95328 3.34292 4.30469 3.19736 4.6711 3.19736H26.7764C27.1428 3.19736 27.4942 3.34292 27.7533 3.60202C28.0124 3.86111 28.1579 4.21252 28.1579 4.57894V11.4868Z" fill="#E9E9E9"/>
</svg>
